<svg xmlns="http://www.w3.org/2000/svg" viewBox="0 0 156.89 69.27"><defs><style>.cls-1{fill:none;stroke:#29007d;stroke-linecap:round;stroke-linejoin:round;stroke-width:3px;}.cls-2{fill:#29007d;}</style></defs><g id="Camada_2" data-name="Camada 2"><g id="OBJECTS"><path class="cls-1" d="M1.5,52.16V10.55a9,9,0,0,1,9.05-9h31a9,9,0,0,1,9.05,9.05V39.94A9,9,0,0,1,41.55,49H14.84A14.33,14.33,0,0,0,4.51,53.38L1.8,56.48S1.5,53.74,1.5,52.16Z"/><polygon class="cls-2" points="20.01 61.06 15.71 58.24 10.61 61.06 10.61 49.63 20.01 49.63 20.01 61.06"/><path class="cls-1" d="M1.5,52.16v3.53c0,6.67,6.25,12.08,14,12.08h8.18c7.71,0,14-5.41,14-12.08l-9.26.4"/><path class="cls-1" d="M9.14,31V15.52A5.48,5.48,0,0,1,14.63,10H32.17"/><path class="cls-2" d="M58.73,29.72V18.81H63.1a5.14,5.14,0,0,1,2,.35,2.53,2.53,0,0,1,1.61,2.44,2.34,2.34,0,0,1-.26,1.12,2.06,2.06,0,0,1-.7.79,2.8,2.8,0,0,1-1,.44v.1a2.49,2.49,0,0,1,2.06,1.26,2.78,2.78,0,0,1,.34,1.39,2.89,2.89,0,0,1-.43,1.55,2.94,2.94,0,0,1-1.27,1.07,4.82,4.82,0,0,1-2.06.4ZM61,23.37h1.71a1.91,1.91,0,0,0,.84-.17,1.45,1.45,0,0,0,.59-.47,1.31,1.31,0,0,0,.21-.74A1.2,1.2,0,0,0,64,21a1.75,1.75,0,0,0-1.18-.36H61Zm0,4.46h1.88a2.13,2.13,0,0,0,1.4-.37,1.23,1.23,0,0,0,.45-1,1.52,1.52,0,0,0-.22-.8,1.55,1.55,0,0,0-.62-.54,2.19,2.19,0,0,0-1-.2H61Z"/><path class="cls-2" d="M78.67,24.26a6.35,6.35,0,0,1-.68,3,4.75,4.75,0,0,1-1.83,1.91,5.51,5.51,0,0,1-5.21,0,4.69,4.69,0,0,1-1.83-1.91,6.4,6.4,0,0,1-.67-3,6.47,6.47,0,0,1,.67-3A4.66,4.66,0,0,1,71,19.32a5.47,5.47,0,0,1,5.21,0A4.66,4.66,0,0,1,78,21.22,6.35,6.35,0,0,1,78.67,24.26Zm-2.34,0a4.9,4.9,0,0,0-.34-2,2.67,2.67,0,0,0-1-1.2,2.8,2.8,0,0,0-2.92,0,2.6,2.6,0,0,0-1,1.2,4.9,4.9,0,0,0-.34,2,4.9,4.9,0,0,0,.34,1.95,2.6,2.6,0,0,0,1,1.2,2.8,2.8,0,0,0,2.92,0,2.67,2.67,0,0,0,1-1.2A4.9,4.9,0,0,0,76.33,24.26Z"/><path class="cls-2" d="M90.4,24.26a6.35,6.35,0,0,1-.68,3,4.75,4.75,0,0,1-1.83,1.91,5.51,5.51,0,0,1-5.21,0,4.69,4.69,0,0,1-1.83-1.91,6.28,6.28,0,0,1-.67-3,6.35,6.35,0,0,1,.67-3,4.66,4.66,0,0,1,1.83-1.9,5.47,5.47,0,0,1,5.21,0,4.66,4.66,0,0,1,1.83,1.9A6.35,6.35,0,0,1,90.4,24.26Zm-2.34,0a5.08,5.08,0,0,0-.34-2,2.67,2.67,0,0,0-1-1.2,2.8,2.8,0,0,0-2.92,0,2.6,2.6,0,0,0-1,1.2,4.9,4.9,0,0,0-.34,2,4.9,4.9,0,0,0,.34,1.95,2.6,2.6,0,0,0,1,1.2,2.8,2.8,0,0,0,2.92,0,2.67,2.67,0,0,0,1-1.2A5.08,5.08,0,0,0,88.06,24.26Z"/><path class="cls-2" d="M92.1,29.72V18.81h2.31v4.81h.14l3.93-4.81h2.76l-4,4.88,4.1,6H98.53l-3-4.49-1.13,1.39v3.1Z"/><path class="cls-2" d="M60.61,47.72H58.14L61.9,36.81h3l3.76,10.91H66.17L63.43,39.3h-.08Zm-.15-4.29h5.83v1.8H60.46Z"/><path class="cls-2" d="M79.07,36.81V47.72h-2l-4.75-6.87h-.08v6.87H70V36.81h2l4.71,6.86h.1V36.81Z"/><path class="cls-2" d="M90.1,36.81V47.72h-2l-4.75-6.87h-.08v6.87H81V36.81h2l4.71,6.86h.09V36.81Z"/><path class="cls-2" d="M102,42.26a6.35,6.35,0,0,1-.67,3,4.75,4.75,0,0,1-1.83,1.91,5.51,5.51,0,0,1-5.21,0,4.69,4.69,0,0,1-1.83-1.91,6.28,6.28,0,0,1-.67-3,6.35,6.35,0,0,1,.67-3,4.66,4.66,0,0,1,1.83-1.9,5.47,5.47,0,0,1,5.21,0,4.66,4.66,0,0,1,1.83,1.9A6.35,6.35,0,0,1,102,42.26Zm-2.33,0a4.89,4.89,0,0,0-.35-1.95,2.65,2.65,0,0,0-1-1.2,2.57,2.57,0,0,0-1.46-.41,2.53,2.53,0,0,0-1.46.41,2.6,2.6,0,0,0-1,1.2,5.76,5.76,0,0,0,0,3.9,2.6,2.6,0,0,0,1,1.2,2.53,2.53,0,0,0,1.46.41,2.57,2.57,0,0,0,1.46-.41,2.65,2.65,0,0,0,1-1.2A4.89,4.89,0,0,0,99.69,42.26Z"/><path class="cls-2" d="M102.83,38.71v-1.9h9v1.9h-3.34v9h-2.28v-9Z"/><path class="cls-2" d="M113.81,47.72h-2.47l3.76-10.91h3l3.76,10.91h-2.47l-2.73-8.42h-.08Zm-.16-4.29h5.84v1.8h-5.84Z"/><path class="cls-2" d="M121.39,38.71v-1.9h9v1.9H127v9h-2.28v-9Z"/><path class="cls-2" d="M134.14,36.81V47.72h-2.31V36.81Z"/><path class="cls-2" d="M146.06,42.26a6.35,6.35,0,0,1-.67,3,4.75,4.75,0,0,1-1.83,1.91,5.53,5.53,0,0,1-5.22,0,4.6,4.6,0,0,1-1.82-1.91,6.28,6.28,0,0,1-.67-3,6.35,6.35,0,0,1,.67-3,4.58,4.58,0,0,1,1.82-1.9,5.49,5.49,0,0,1,5.22,0,4.66,4.66,0,0,1,1.83,1.9A6.35,6.35,0,0,1,146.06,42.26Zm-2.34,0a4.9,4.9,0,0,0-.34-1.95,2.6,2.6,0,0,0-1-1.2A2.53,2.53,0,0,0,141,38.7a2.57,2.57,0,0,0-1.46.41,2.65,2.65,0,0,0-1,1.2,5.61,5.61,0,0,0,0,3.9,2.65,2.65,0,0,0,1,1.2,2.57,2.57,0,0,0,1.46.41,2.53,2.53,0,0,0,1.46-.41,2.6,2.6,0,0,0,1-1.2A4.9,4.9,0,0,0,143.72,42.26Z"/><path class="cls-2" d="M156.89,36.81V47.72h-2l-4.75-6.87h-.08v6.87h-2.3V36.81h2l4.71,6.86h.09V36.81Z"/></g></g></svg>